<!--
    Sonix Custom Structural Vector Logo
    Theme: Rounded Clean Geometric
    Background: Transparent / Text: White
-->
<svg width="1429" height="512" viewBox="0 0 1429 512" fill="none" xmlns="http://www.w3.org/2000/svg">
  <!-- S - Precision Vector Path with exact curves -->
  <path d="M225 237.5C221.5 238.5 217.7 238.3 214.2 237C210.7 235.7 207.7 233.2 205.7 230.1C204.6 228.5 203.3 226.6 202 225C197.6 219.3 192 214.7 185.6 211.5C178.6 208 169.7 206.2 158.9 206.2C144.1 206.2 131.7 209.7 121.8 216.5C111.9 223.3 107.2 231.9 107.2 242.4C107.2 251.8 110.5 259.2 117.2 264.5C124 269.9 134.6 274.5 148.9 278.1L184.8 287C206.6 292.3 222.7 300.4 233.5 311.3C244.2 322.1 249.4 336.2 249.4 353.3C249.5 366.8 245.3 380 337.3 390.8C329.4 401.9 318.3 410.6 304 417C289.8 423.5 273.2 426.6 254.3 426.6C229.5 426.6 209 421.2 192.8 410.4C182.8 403.8 174.6 394.8 169.2 384.1C168 381.6 167.3 378.9 167.3 376.2C167.2 373.4 167.8 370.7 168.9 368.2C170.1 365.7 171.8 363.5 173.9 361.8C176 360 178.4 358.8 181.1 358.1L181.8 357.9C185.8 357 190 357.4 193.8 359.2C197.5 360.9 200.5 363.8 202.4 367.5C205.8 374 210.6 379.6 216.5 383.7C226 390.3 238.4 393.7 253.8 393.7C271.1 393.7 285 390 295.3 382.4C305.5 374.9 310.8 365.8 310.8 355.4C310.9 351.4 310.2 347.4 308.6 343.7C307.1 340 304.8 336.7 301.8 334C296 328.1 286.9 323.9 274.6 320.9L234.1 311.3C211.8 306 195.5 297.7 185.1 286.7C174.7 275.6 169.5 261.2 169.5 244.5C169.3 231.3 173.4 218.5 181.1 207.8C188.9 197.2 199.5 188.9 212.9 182.8C226.2 176.7 241.7 173.8 258.7 173.8C282.8 173.8 301.7 179.1 315.4 189.8C323.1 195.7 329.7 202.9 334.9 211.2C336.4 213.5 337.4 216.1 337.7 218.8C338 221.5 337.6 224.3 336.7 226.9C335.7 229.4 334.1 231.7 332.1 233.6C330.1 235.4 327.7 236.8 325 237.5V237.5Z" fill="white"/>

  <!-- o - Circular Geometry Path -->
  <path d="M495 427C472.2 427 452.6 421.7 436.2 410.8C419.8 399.9 407.1 385 398.2 366C389.2 347.1 384.9 325.3 384.9 300.9C384.9 276 389.5 254.1 398.4 234.9C407.3 215.8 420.3 200.9 436.8 190.2C453.2 179.5 472.4 174 494.3 174C511.5 174 526.9 177.1 540.6 183.5C558.6 191.6 573.4 205.6 582.4 223.3C583.5 225.5 584.2 227.8 584.4 230.3C584.6 232.7 584.3 235.2 583.6 237.5C582.8 239.8 581.6 242 580 243.8C578.4 245.7 576.5 247.2 574.4 248.3C572.2 249.5 569.9 250.1 567.5 250.3C565.1 250.5 562.6 250.2 560.3 249.5C558 248.7 555.9 247.5 554 245.9C552.1 244.4 550.6 242.4 549.5 240.2C545.8 232.8 540.6 226.1 534.2 220.7C524.5 212.1 511.3 207.6 494.9 207.6C481.2 207.4 467.9 211.4 456.5 219.1C445.2 227.1 436.4 238.3 431.1 251.1C425.1 264.7 422.2 280.9 422.2 299.4C422.2 318.3 425.1 334.7 431 348.7C436.8 362.7 445.4 373.6 456.3 381.3C467.3 389.1 480.1 392.9 494.9 392.9C504 393.1 513 391.3 521.4 387.8C529.1 384.5 536 379.5 541.5 373C544.8 369.3 547.5 365.1 549.5 360.5C551.1 357.4 553.4 354.7 556.4 352.9C559.3 351 562.7 350 566.2 350.1C579.5 350.1 588.5 364 582.6 376C580.4 380.6 577.8 385 574.9 389.1C566.4 400.8 555.2 410.2 542.2 416.5C528.7 423.7 513 427 495 427Z" fill="white"/>

  <!-- n - Modern Lowercase Flow Path -->
  <path d="M783 321.7V195.7C783.1 190.8 785.1 186.1 788.6 182.7C792.1 179.3 796.8 177.4 801.6 177.4C806.5 177.4 811.1 179.3 814.6 182.7C818.1 186.1 820.1 190.8 820.3 195.7V403.1C820.1 408 818.1 412.6 814.6 416C811.1 419.4 806.5 421.3 801.6 421.3C796.8 421.3 792.1 419.4 788.6 416C885.1 412.6 783.1 408 783 403.1V380.4H780.4C774.5 393.1 765.4 404.1 753.9 412.1C741.9 420.7 726.7 425 708.4 425C693.2 425 679.7 421.7 667.9 414.9C655.7 407.8 646 397.1 640.1 384.3C633.3 370.7 630 353.4 630 332.5V195.7C630 190.7 632 185.9 635.5 182.4C639 178.9 643.7 176.9 648.7 176.9C653.6 176.9 658.4 178.9 661.9 182.4C665.4 185.9 667.3 190.7 667.3 195.7V330C667.3 347.8 672.3 362 682.1 372.7C692 383.3 705 388.7 720.5 388.7C730.4 388.5 740.1 386.1 748.8 381.5C758.7 376.5 767.1 369 773.1 359.6C779.7 349.7 783 337.1 783 321.7V321.7Z" fill="white"/>

  <!-- i - Straight Line with Dot Path -->
  <path d="M874.4 403.1V195.7C874.3 193.2 874.8 190.7 875.7 188.3C876.6 186 877.9 183.9 879.7 182.1C881.4 180.3 883.5 178.8 885.8 177.9C888.1 176.9 890.5 176.4 893 176.4C895.5 176.4 898 176.9 900.3 177.9C902.6 178.8 904.6 180.3 906.4 182.1C908.1 183.9 909.5 186 910.4 188.3C911.3 190.7 911.7 193.2 911.7 195.7V403.1C911.7 405.6 911.3 408.1 910.4 410.4C909.5 412.8 908.1 414.9 906.4 416.7C904.6 418.5 902.6 419.9 900.3 420.9C898 421.9 895.5 422.4 893 422.4C890.5 422.4 888.1 421.9 885.8 420.9C883.5 419.9 881.4 418.5 879.7 416.7C877.9 414.9 876.6 412.8 875.7 410.4C874.8 408.1 874.3 405.6 874.4 403.1ZM893.4 136.2C886.4 136.3 879.6 133.6 874.6 128.7C872.1 126.3 870.2 123.5 868.9 120.4C867.6 117.3 866.9 114 866.9 110.6C866.9 107.2 867.6 103.9 868.9 100.8C870.2 97.7 872.1 94.9 874.6 92.6C879.6 87.6 886.4 84.9 893.4 85C896.8 85 900.3 85.6 903.5 86.9C906.7 88.2 909.6 90.1 912 92.6C914.5 94.9 916.5 97.6 917.8 100.8C919.2 103.9 919.9 107.2 919.9 110.6C919.9 114 919.2 117.3 917.8 120.4C916.5 123.5 914.5 126.3 912 128.7C907 133.5 900.4 136.2 993.4 136.2Z" fill="white"/>

  <!-- x - Cross Geometric Symmetric Path -->
  <path d="M962 195.6C962 189.2 966.3 182.6 974.2 178.7C981.5 175.1 989.4 174 997.3 175.8C1005 177.5 1011.6 182 1017.2 188.4L1078.5 259.2C1079.5 260.4 1081 260.4 1082 259.2L1143.3 188.4C1148.9 182 1155.5 177.5 1163.2 175.8C1171.1 174 1179 175.1 1186.3 178.7C1194.2 182.6 1198.5 189.2 1198.5 195.6C1198.5 201 1196 206.5 1191.1 211.9L1120.3 291C1119.2 292.2 1119.2 293.8 1120.3 295L1191.1 374.1C1196 379.5 1198.5 385 1198.5 390.4C1198.5 396.8 1194.2 403.4 1186.3 407.3C1179 410.9 1171.1 412 1163.2 410.2C1155.5 408.5 1148.9 404 1143.3 397.6L1082 326.8C1081 325.6 1079.5 325.6 1078.5 326.8L1017.2 397.6C1011.6 404 1005 408.5 997.3 410.2C989.4 412 1081.5 410.9 974.2 407.3C966.3 403.4 962 396.8 962 390.4C962 385 964.5 379.5 969.4 374.1L1040.2 295C1041.3 293.8 1041.3 292.2 1040.2 291L969.4 211.9C964.5 206.5 962 201 962 195.6Z" fill="white"/>
</svg>
